<svg id="Layer_1" data-name="Layer 1" xmlns="http://www.w3.org/2000/svg" width="48.75" height="48.67" viewBox="0 0 48.75 48.67">
  <defs>
    <style>
      .cls-1 {
        fill: #fff;
      }
    </style>
  </defs>
  <path class="cls-1" d="M48.1,13c.23,1.91.38,3.8.48,5.67s.18,3.81.17,5.69-.09,3.79-.22,5.69-.38,3.8-.66,5.67a17.88,17.88,0,0,1-1.53,5,12.24,12.24,0,0,1-2.71,3.74A13.43,13.43,0,0,1,39.72,47a20.16,20.16,0,0,1-5.19,1.24l-5.14.29c-1.75.09-3.45.14-5.1.14s-3.52,0-5.22-.14l-5-.29A19.35,19.35,0,0,1,9,46.91a13.21,13.21,0,0,1-4-2.5,13,13,0,0,1-2.76-3.74,19.13,19.13,0,0,1-1.57-5C.44,33.8.29,31.91.19,30S0,26.2,0,24.31s.06-3.78.19-5.69S.44,14.86.67,13A12.49,12.49,0,0,1,2.1,8.15a14.12,14.12,0,0,1,3-3.91A15.09,15.09,0,0,1,9.38,1.57,14.88,14.88,0,0,1,14.48.48C16.16.32,17.84.19,19.53.1S22.9,0,24.6,0,28,0,29.67.1s3.4.22,5,.38a16.65,16.65,0,0,1,6.72,2.09,13.46,13.46,0,0,1,3.9,3.5,13,13,0,0,1,2,3.84A23.39,23.39,0,0,1,48.1,13ZM44.77,35.24c.22-1.77.38-3.57.48-5.38s.19-3.62.19-5.45-.07-3.66-.19-5.5-.26-3.67-.48-5.48A15,15,0,0,0,42,7.29q-2-2.76-7.71-3.48l-4.81-.29c-1.65-.09-3.32-.14-5-.14s-3.31.06-5,.17-3.34.28-5,.5a11.12,11.12,0,0,0-3.81.86,11.41,11.41,0,0,0-3.17,2,10.39,10.39,0,0,0-2.31,3A10.16,10.16,0,0,0,4,13.62c-.22,1.78-.38,3.57-.48,5.38s-.19,3.63-.19,5.46.07,3.66.19,5.5.26,3.66.48,5.47a12.2,12.2,0,0,0,3.33,6.74,11.94,11.94,0,0,0,7.15,2.88c1.68.16,3.33.28,4.95.34s3.3.14,4.95.14,3.31-.05,5-.14,3.27-.18,4.95-.34a13.14,13.14,0,0,0,7.15-3A12.08,12.08,0,0,0,44.77,35.24ZM35.39,11.62a1.73,1.73,0,0,1,1.35.57,3.1,3.1,0,0,1,.69,1.24,12.27,12.27,0,0,1-1,5,13,13,0,0,1-6.86,6.86,12.36,12.36,0,0,1-5.05,1.05,12.13,12.13,0,0,1-5-1.05,12.75,12.75,0,0,1-4.12-2.76,14,14,0,0,1-2.79-4.1,12.61,12.61,0,0,1-1-5A2.3,2.3,0,0,1,12,12.19a1.31,1.31,0,0,1,1.22-.57,1.59,1.59,0,0,1,1.28.57,1.9,1.9,0,0,1,.5,1.24,8.68,8.68,0,0,0,.76,3.62,9.28,9.28,0,0,0,2,2.95,9.17,9.17,0,0,0,3,2,8.54,8.54,0,0,0,3.62.77A8.76,8.76,0,0,0,27.91,22a9.45,9.45,0,0,0,4.95-4.95,8.68,8.68,0,0,0,.76-3.62,1.72,1.72,0,0,1,.55-1.33A1.79,1.79,0,0,1,35.39,11.62Z"/>
</svg>
